<svg width="28" height="29" viewBox="0 0 28 29" fill="none" xmlns="http://www.w3.org/2000/svg">
<g id="Icon/Outline/document-search">
<path id="Icon" d="M11.5849 25.0572H19.6116C20.8781 25.0572 21.9049 24.0305 21.9049 22.7639V11.7722C21.9049 11.4681 21.7841 11.1764 21.569 10.9614L15.3607 4.75309C15.1457 4.53805 14.854 4.41724 14.5499 4.41724H8.1449C6.87832 4.41724 5.85156 5.444 5.85156 6.71057V19.3239M5.85156 25.0572L11.4458 19.463M11.4458 19.463C12.0683 20.0855 12.9283 20.4706 13.8782 20.4706C15.7781 20.4706 17.3182 18.9304 17.3182 17.0306C17.3182 15.1307 15.7781 13.5906 13.8782 13.5906C11.9784 13.5906 10.4382 15.1307 10.4382 17.0306C10.4382 17.9805 10.8233 18.8405 11.4458 19.463Z" stroke="#666666" stroke-width="1.14667" stroke-linecap="round"/>
</g>
</svg>
