<svg width="24" height="24" viewBox="0 0 24 24" fill="none" xmlns="http://www.w3.org/2000/svg">
<g id="Face_ID_logo 1" clip-path="url(#clip0_4582_10040)">
<g id="Page-1">
<g id="Face-ID">
<g id="Group">
<g id="Group_2">
<g id="Corners">
<g id="Corner">
<path id="Vector" d="M1.23429 6.58286V3.90857C1.23429 2.39798 2.39798 1.23429 3.90857 1.23429H6.58286C6.9237 1.23429 7.2 0.957981 7.2 0.617143C7.2 0.276304 6.9237 0 6.58286 0H3.90857C1.7163 0 0 1.7163 0 3.90857V6.58286C0 6.9237 0.276304 7.2 0.617143 7.2C0.957981 7.2 1.23429 6.9237 1.23429 6.58286Z" fill="black"/>
</g>
<g id="Corner_2">
<path id="Vector_2" d="M22.7657 6.58286V3.90857C22.7657 2.39798 21.602 1.23429 20.0914 1.23429H17.4171C17.0763 1.23429 16.8 0.957981 16.8 0.617143C16.8 0.276304 17.0763 0 17.4171 0H20.0914C22.2837 0 24 1.7163 24 3.90857V6.58286C24 6.9237 23.7237 7.2 23.3829 7.2C23.042 7.2 22.7657 6.9237 22.7657 6.58286Z" fill="black"/>
</g>
<g id="Corner_3">
<path id="Vector_3" d="M1.23429 17.4171V20.0914C1.23429 21.602 2.39798 22.7657 3.90857 22.7657H6.58286C6.9237 22.7657 7.2 23.042 7.2 23.3829C7.2 23.7237 6.9237 24 6.58286 24H3.90857C1.7163 24 0 22.2837 0 20.0914V17.4171C0 17.0763 0.276304 16.8 0.617143 16.8C0.957981 16.8 1.23429 17.0763 1.23429 17.4171Z" fill="black"/>
</g>
<g id="Corner_4">
<path id="Vector_4" d="M22.7657 17.4171V20.0914C22.7657 21.602 21.602 22.7657 20.0914 22.7657H17.4171C17.0763 22.7657 16.8 23.042 16.8 23.3829C16.8 23.7237 17.0763 24 17.4171 24H20.0914C22.2837 24 24 22.2837 24 20.0914V17.4171C24 17.0763 23.7237 16.8 23.3829 16.8C23.042 16.8 22.7657 17.0763 22.7657 17.4171Z" fill="black"/>
</g>
</g>
<g id="Eye">
<path id="Path" d="M6.52734 9.06473V10.78C6.52734 11.135 6.79597 11.4228 7.12734 11.4228C7.45871 11.4228 7.72734 11.135 7.72734 10.78V9.06473C7.72734 8.70969 7.45871 8.42188 7.12734 8.42188C6.79597 8.42188 6.52734 8.70969 6.52734 9.06473Z" fill="black"/>
</g>
<g id="Eye_2">
<path id="Path_2" d="M16.4219 9.06473V10.78C16.4219 11.135 16.6905 11.4228 17.0219 11.4228C17.3532 11.4228 17.6219 11.135 17.6219 10.78V9.06473C17.6219 8.70969 17.3532 8.42188 17.0219 8.42188C16.6905 8.42188 16.4219 8.70969 16.4219 9.06473Z" fill="black"/>
</g>
<path id="Mouth" d="M7.77877 17.7261C8.94911 18.8184 10.3665 19.3697 11.9992 19.3697C13.6318 19.3697 15.0492 18.8184 16.2196 17.7261C16.4746 17.4881 16.4884 17.0885 16.2504 16.8335C16.0124 16.5785 15.6127 16.5647 15.3577 16.8027C14.4228 17.6753 13.3139 18.1065 11.9992 18.1065C10.6844 18.1065 9.57556 17.6753 8.64064 16.8027C8.38564 16.5647 7.98599 16.5785 7.74799 16.8335C7.50999 17.0885 7.52377 17.4881 7.77877 17.7261Z" fill="black"/>
<path id="Nose" d="M12.001 9.05345V13.4745C12.001 13.7574 11.8627 13.8956 11.5784 13.8956H11.1589C10.8101 13.8956 10.5273 14.1783 10.5273 14.5271C10.5273 14.8759 10.8101 15.1587 11.1589 15.1587H11.5784C12.56 15.1587 13.2642 14.4554 13.2642 13.4745V9.05345C13.2642 8.70464 12.9814 8.42188 12.6326 8.42188C12.2838 8.42188 12.001 8.70464 12.001 9.05345Z" fill="black"/>
</g>
</g>
</g>
</g>
</g>
<defs>
<clipPath id="clip0_4582_10040">
<rect width="24" height="24" fill="white"/>
</clipPath>
</defs>
</svg>
