<svg width="28" height="29" viewBox="0 0 28 29" fill="none" xmlns="http://www.w3.org/2000/svg">
<g id="Marketplace">
<path id="Vector" d="M5.5573 16.0467L5.5475 22.6073C5.54097 24.0461 6.56645 25.051 8.01649 25.0542C11.9225 25.0542 16.1452 25.0223 20.1035 25.0574C21.2269 25.067 22.4288 24.1035 22.4288 22.7796L22.432 16.0435M8.85909 12.0362C9.00871 12.4739 9.04198 12.9263 9.70821 13.4527C11.1387 14.582 12.9105 13.9913 13.5735 12.7917C13.8155 12.3539 13.9202 12.0266 13.9202 12.0266C14.0063 12.3702 14.1792 12.8529 14.852 13.4495C16.2236 14.6586 18.6273 14.1258 19.1172 12.0266C19.2837 12.5562 19.6626 13.1751 20.11 13.542C21.8017 14.9298 24.6659 13.5165 24.2805 11.1397C24.2315 10.8335 23.6012 9.03097 23.4608 8.58433C23.2028 7.76762 22.886 6.87754 22.6378 6.05764C22.3765 5.20902 22.161 4.44017 20.8579 4.42741C18.575 4.40507 16.2791 4.42741 13.993 4.42741C11.7069 4.42741 9.41755 4.41783 7.12818 4.42741C6.64483 4.4306 6.15495 4.60606 5.89368 4.86128C5.57362 5.18031 5.49851 5.56952 5.35481 6.01616C5.08374 6.87754 4.80615 7.71339 4.52201 8.57476C4.37178 9.02459 3.77087 10.7792 3.71208 11.1238C3.37243 13.1719 5.48218 14.6522 7.29147 13.877C7.95771 13.5931 8.65334 12.6998 8.85909 12.0362Z" stroke="#212121" stroke-width="1.14667" stroke-linecap="round"/>
</g>
</svg>
