<svg width="40" height="40" viewBox="0 0 40 40" fill="none" xmlns="http://www.w3.org/2000/svg">
<g id="Icon/Outline/tasks">
<path id="Vector" d="M13.3333 4.58203V7.91536M20.1575 4.58203V7.91536M26.8237 4.58203V7.91536M17.5 13.7487H29.1667M10.8333 13.9987L11.7857 14.9987L14.1667 12.4987M17.5 21.2487H29.1667M10.8333 21.4987L11.7857 22.4987L14.1667 19.9987M17.5 28.7487H29.1667M10.8333 28.9987L11.7857 29.9987L14.1667 27.4987M10.8333 36.2487H29.1667C31.0076 36.2487 32.5 34.7563 32.5 32.9154V9.58203C32.5 7.74108 31.0076 6.2487 29.1667 6.2487H10.8333C8.99238 6.2487 7.5 7.74108 7.5 9.58203V32.9154C7.5 34.7563 8.99238 36.2487 10.8333 36.2487Z" stroke="#FF9800" stroke-width="2" stroke-linecap="round" stroke-linejoin="round"/>
</g>
</svg>
