<svg width="40" height="40" viewBox="0 0 40 40" fill="none" xmlns="http://www.w3.org/2000/svg">
<g id="User Permissions">
<mask id="mask0_4231_8555" style="mask-type:alpha" maskUnits="userSpaceOnUse" x="0" y="0" width="40" height="40">
<rect id="Bounding box" width="40" height="40" fill="#D9D9D9"/>
</mask>
<g mask="url(#mask0_4231_8555)">
<path id="Vector" 
d="M26.697 9.62157C25.9313 9.65659 25.235 9.87306 24.6136 10.3339C22.9873 11.5404 22.7874 13.8237 23.9254 15.2483C24.6265 16.1261 25.5308 16.587 26.6962 16.6355C28.354 16.7047 29.9159 15.4505 30.2189 13.9097C30.4511 12.731 30.2214 11.6526 29.3526 10.7517C28.8408 10.2217 28.242 9.86511 27.5126 9.70275C27.2491 9.64386 26.9839 9.68763 26.7268 9.62157M13.2136 21C13.565 20.9546 13.8423 21.1671 14.1469 21.2722C15.4275 21.7147 16.6824 21.6542 17.9179 21.117C18.0936 21.0406 18.2685 20.9841 18.4619 21M10.1374 14.0895C9.67072 14.3562 9.5192 14.778 9.53451 15.2809C9.54177 15.5189 9.52001 15.7569 9.5603 15.9964C9.63848 16.4596 9.92378 16.7724 10.3783 16.8599C10.7555 16.9324 10.8192 16.9912 10.8603 17.3367C11.0182 18.649 11.6195 19.7075 12.701 20.4946C12.7929 20.5615 12.8937 20.6228 12.9702 20.7047C13.1024 20.8464 13.2362 20.9968 13.0935 21.2093C13.0266 21.3096 13.0323 21.4242 13.0331 21.5364C13.0331 21.6956 13.0258 21.8548 13.0347 22.0131C13.0669 22.6037 13.0387 23.1775 12.6108 23.6518M8.55368 31.6932C8.55852 32.7955 8.56336 33.8977 8.569 34.9992M23.1226 31.6932C23.1178 32.7955 23.113 33.8977 23.1073 34.9992M20.2116 8.31079C20.4647 7.8858 20.7814 7.51572 21.1441 7.17669C21.7147 6.64425 22.4255 6.61083 23.0155 7.12018C23.7473 7.7513 24.5637 7.46956 24.9143 6.90928C25.0488 6.69439 25.0819 6.4437 25.0956 6.19539C25.1311 5.56109 25.7097 5.02945 26.3641 5.00558C26.6148 4.99603 26.867 5.0008 27.1185 5.00478C27.8503 5.01513 28.404 5.62874 28.4217 6.25508C28.4459 7.09392 29.0568 7.51811 29.712 7.47673C30.0207 7.45762 30.2826 7.31755 30.4922 7.1154C31.0539 6.57342 31.8945 6.66176 32.3676 7.17748C32.5296 7.35416 32.7157 7.50936 32.8777 7.68683C33.3266 8.17867 33.3258 8.91485 32.8785 9.41226C32.4345 9.90569 32.32 10.5034 32.756 11.0525C33.022 11.3876 33.3919 11.4831 33.7836 11.4918C34.3985 11.5054 35.0054 12.1269 34.9853 12.7183C34.9708 13.1464 35.0763 13.5826 34.8732 14.0012C34.6379 14.4859 34.2752 14.7549 33.7232 14.7756C32.8391 14.8082 32.4409 15.4576 32.4869 16.0553C32.511 16.3737 32.6746 16.6275 32.8793 16.8591C33.288 17.3223 33.3347 17.967 32.9656 18.4652C32.7383 18.7716 32.4627 19.0446 32.1524 19.2682C31.6479 19.6327 30.9902 19.5913 30.5268 19.1815C29.9772 18.6952 29.3485 18.6729 28.8658 19.0621C28.5571 19.3112 28.4193 19.6391 28.4185 20.0163C28.4169 20.6896 27.785 21.2738 27.0879 21.2674C26.867 21.2658 26.6454 21.2642 26.4246 21.2674C25.7476 21.277 25.1246 20.7079 25.0916 20.0458C25.0537 19.2937 24.6854 18.957 24.1631 18.8233C23.7303 18.7127 23.3701 18.8695 23.0485 19.125C22.3635 19.6709 21.7163 19.6494 21.0877 19.031C20.945 18.891 20.7919 18.774 20.6033 18.7047M12.6406 23.7099C12.581 23.6279 12.5028 23.6526 12.4278 23.6518C11.9475 23.6478 11.4752 23.6892 11.04 23.9184C10.9925 23.9431 10.9288 23.9877 10.8909 23.9741C10.4065 23.7983 9.95844 24.0076 9.50228 24.1007C8.74953 24.2543 7.99598 24.4119 7.29964 24.7525C5.82639 25.4735 5.05027 26.6514 5.014 28.2678C4.98176 29.7171 5.01722 31.1671 5.00352 32.6164C4.99466 33.5237 5.55479 34.3593 6.57672 34.579C6.85396 34.6387 7.09816 34.7413 7.29964 34.9395M14.1791 35C14.1203 34.0131 14.3186 33.0501 14.4507 32.0808C14.6208 30.8392 14.79 29.5985 14.9649 28.3577C15.0189 27.9765 15.0584 27.9479 15.4461 27.9415C15.7177 27.9375 15.9893 27.9351 16.2601 27.9415C16.6066 27.9503 16.6622 27.994 16.7114 28.3275C16.8363 29.1807 16.9548 30.0346 17.0749 30.8886C17.2167 31.9009 17.369 32.9125 17.4907 33.9272C17.5327 34.2797 17.4972 34.6411 17.4972 34.9984M10.0463 12.7493C10.056 13.0868 10.0705 13.4242 10.0753 13.7624C10.0785 13.9909 10.1591 14.1723 10.409 14.1747M21.6292 14.1516C21.892 14.3363 22.0798 14.5718 22.1088 14.8965C22.133 15.1632 22.1434 15.433 22.1394 15.7004C22.1273 16.4357 21.8936 16.7024 21.1465 16.8631C21.0151 16.8918 20.8999 16.9475 20.8749 17.1003C20.8354 17.339 20.7991 17.5778 20.7532 17.815C20.6436 18.3776 20.4913 18.918 20.0939 19.3677C19.8078 19.6908 19.5685 20.0545 19.2155 20.3179C19.0438 20.4461 18.8544 20.5583 18.7093 20.7119C18.6239 20.8018 18.4393 20.8997 18.5264 21.0597C18.6956 21.3693 18.6457 21.6964 18.636 22.0155C18.6191 22.606 18.636 23.1799 19.0631 23.6542M24.4041 34.9101C24.6015 34.7318 24.8345 34.6363 25.0972 34.579C26.1159 34.3546 26.6785 33.5555 26.6672 32.6164C26.6615 32.1301 26.6664 31.6431 26.6664 31.1568M21.5688 14.0895C21.6341 13.0374 21.6268 11.9829 21.5841 10.9324C21.5543 10.1946 21.2222 9.53005 20.7226 8.96737C20.567 8.79228 20.3913 8.63232 20.2769 8.42698C20.2422 8.36491 20.2068 8.3076 20.1503 8.28293C19.2952 7.90729 18.4514 7.5579 17.4658 7.60963C16.2625 7.6733 15.0536 7.62873 13.8471 7.62316C13.1314 7.61998 12.6293 7.95345 12.3464 8.58138C12.1957 8.91644 11.9725 9.10983 11.6146 9.10983C10.795 9.10983 10.0302 9.8285 10.0463 10.8416M26.6664 29.4895C26.6374 28.8345 26.7171 28.1779 26.5825 27.5221C26.4407 26.8305 26.1312 26.2376 25.6726 25.7051C24.9642 24.8814 24.0035 24.5265 22.9856 24.279C22.4763 24.1548 21.9597 24.0609 21.4479 23.9471C21.2545 23.9041 21.0627 23.8667 20.8757 23.9511C20.7717 23.998 20.6879 23.967 20.6033 23.9184C20.1616 23.6661 19.6756 23.6502 19.1856 23.6494" 
stroke="#FF9800" stroke-width="2" stroke-linecap="round" stroke-linejoin="round"/>
</g>
</g>
</svg>
