<svg width="40" height="40" viewBox="0 0 40 40" fill="none" xmlns="http://www.w3.org/2000/svg">
<g id="Icon/Outline/user-group">
<path id="Icon" d="M28.332 33.3346H36.6654V30.0013C36.6654 27.2399 34.4268 25.0013 31.6654 25.0013C30.0727 25.0013 28.6539 25.746 27.7383 26.9061M28.332 33.3346H11.6654M28.332 33.3346V30.0013C28.332 28.9076 28.1213 27.8631 27.7383 26.9061M11.6654 33.3346H3.33203V30.0013C3.33203 27.2399 5.57061 25.0013 8.33203 25.0013C9.92471 25.0013 11.3435 25.746 12.2591 26.9061M11.6654 33.3346V30.0013C11.6654 28.9076 11.8761 27.8631 12.2591 26.9061M12.2591 26.9061C13.4879 23.8363 16.4901 21.668 19.9987 21.668C23.5073 21.668 26.5095 23.8363 27.7383 26.9061M24.9987 11.668C24.9987 14.4294 22.7601 16.668 19.9987 16.668C17.2373 16.668 14.9987 14.4294 14.9987 11.668C14.9987 8.90655 17.2373 6.66797 19.9987 6.66797C22.7601 6.66797 24.9987 8.90655 24.9987 11.668ZM34.9987 16.668C34.9987 18.5089 33.5063 20.0013 31.6654 20.0013C29.8244 20.0013 28.332 18.5089 28.332 16.668C28.332 14.827 29.8244 13.3346 31.6654 13.3346C33.5063 13.3346 34.9987 14.827 34.9987 16.668ZM11.6654 16.668C11.6654 18.5089 10.173 20.0013 8.33203 20.0013C6.49108 20.0013 4.9987 18.5089 4.9987 16.668C4.9987 14.827 6.49108 13.3346 8.33203 13.3346C10.173 13.3346 11.6654 14.827 11.6654 16.668Z" stroke="#FF9800" stroke-width="2" stroke-linecap="round" stroke-linejoin="round"/>
</g>
</svg>
